<svg width="244" height="171" viewBox="0 0 244 171" fill="none" xmlns="http://www.w3.org/2000/svg">
<path d="M157.762 29.7764C157.674 29.6536 157.586 29.5308 157.492 29.4115C156.087 27.5908 154.129 26.4226 151.939 26.0929C149.71 25.7596 147.491 26.3384 145.66 27.7206C142.681 23.7775 137.291 23.0513 133.495 26.142C133.234 26.3525 132.99 26.577 132.759 26.812C132.596 26.9769 132.443 27.1488 132.296 27.3242C132.312 27.3523 132.328 27.3768 132.348 27.4049L142.684 42.3741L142.945 42.1636C143.493 41.7286 156.293 31.4813 156.697 31.1551C157.137 30.7972 157.537 30.4008 157.896 29.9764C157.854 29.9097 157.808 29.8431 157.762 29.7764Z" fill="#22A8F9"/>
<path d="M158.414 17.8488C156.993 15.8211 154.924 14.5161 152.591 14.1653C150.362 13.832 148.143 14.4108 146.311 15.793C143.333 11.8499 137.943 11.1237 134.147 14.2144C130.347 17.3015 129.529 23.1671 132.296 27.3242C132.312 27.3523 132.328 27.3768 132.348 27.4049L142.684 42.3741L142.945 42.1636C143.493 41.7286 156.293 31.4813 156.697 31.1551C157.137 30.7973 157.537 30.4008 157.896 29.9764C160.705 26.6647 161.018 21.5534 158.414 17.8488ZM157.492 29.4115C157.137 29.8431 156.739 30.2395 156.302 30.5938C155.934 30.8955 144.689 39.8938 142.818 41.3918L132.873 26.9874C132.834 26.9313 132.794 26.8717 132.759 26.812C130.276 22.9671 131.054 17.6102 134.541 14.7721C136.014 13.5759 137.741 12.997 139.458 12.997C141.935 12.997 144.386 14.2003 145.989 16.4876L146.184 16.7683L146.445 16.5543C150.039 13.632 155.178 14.4003 157.896 18.2698C159.212 20.1466 159.77 22.4585 159.47 24.7878C159.245 26.5349 158.557 28.1276 157.492 29.4115Z" fill="#3F3D56"/>
<path d="M228.607 35.7829L226.479 35.4321C226.186 33.8254 225.752 32.2432 225.189 30.7207C225.43 32.2011 225.338 33.7412 224.941 35.1795L202.029 31.4083C203.15 26.104 203.786 21.147 203.408 16.9057C202.844 10.5419 207.224 4.81317 213.158 4.58864C213.321 4.58164 213.487 4.57812 213.653 4.57812C219.15 4.57812 223.69 8.03713 224.351 12.5065C224.586 14.1062 224.915 15.6919 225.189 17.2881C226.215 23.2659 230.51 31.2329 228.607 35.7829Z" fill="#2F2E41"/>
<path d="M168.381 45.3012C169.12 45.6313 169.729 46.1138 170.142 46.649L177.368 49.3155L176.089 52.9797L168.897 49.8803C168.253 49.9433 167.506 49.8202 166.767 49.49C165.078 48.7358 164.071 47.1866 164.517 46.0299C164.963 44.8732 166.693 44.5469 168.381 45.3012Z" fill="#FFB6B6"/>
<path d="M191.614 162.92L188.757 162.993L187.164 149.172L191.381 149.064L191.614 162.92Z" fill="#FFB7B7"/>
<path d="M181.811 169.338C181.811 169.858 182.153 170.279 182.576 170.279H188.248C188.248 170.279 188.806 167.864 191.082 166.824L191.239 170.279H194.165L193.81 164.724C193.81 164.724 194.593 161.752 192.967 160.232C191.342 158.713 192.659 158.924 192.659 158.924L192.019 155.486L187.598 156.046L187.565 161.443L185.419 166.801L182.272 168.475C181.992 168.624 181.811 168.963 181.811 169.338Z" fill="#2F2E41"/>
<path d="M222.333 162.92L219.475 162.993L217.882 149.172L222.099 149.064L222.333 162.92Z" fill="#FFB7B7"/>
<path d="M212.529 169.338C212.529 169.858 212.871 170.279 213.294 170.279H218.966C218.966 170.279 219.524 167.864 221.8 166.824L221.957 170.279H224.883L224.529 164.724C224.529 164.724 225.311 161.752 223.686 160.232C222.06 158.713 223.377 158.924 223.377 158.924L222.737 155.486L218.316 156.046L218.283 161.443L216.138 166.801L212.99 168.475C212.71 168.624 212.529 168.963 212.529 169.338Z" fill="#2F2E41"/>
<path d="M199.279 62.4446L216.876 65.602C219.183 69.7072 223.719 85.2474 223.719 85.2474C223.719 85.2474 222.53 128.42 223.546 153.397L216.224 153.656L206.448 97.8767L193.413 152.253L186.303 152.794L187.222 114.014C187.222 114.014 197.047 62.9251 199.279 62.4446Z" fill="black"/>
<path d="M207.585 27.9883L216.546 28.2898L225.787 41.5542C222.203 51.3041 218.832 58.3442 218.979 65.2962C218.992 65.8851 219.884 67.2083 219.957 67.7519C220.056 68.4865 218.759 69.5643 218.979 70.2076L197.324 65.2511C197.762 64.5858 197.385 63.7449 197.65 63.1463C197.883 62.62 198.777 62.3312 198.885 61.8208C199.472 59.0651 199.785 54.4673 197.578 49.068C196.009 45.2289 202.916 36.2727 202.544 31.9074L207.585 27.9883Z" fill="#E6E6E6"/>
<path d="M209.639 34.1817L193.156 58.1347L173.834 52.4069L174.674 46.9806L189.387 49.9805L197.595 36.3957C200.276 30.8182 205.558 29.6949 209.639 34.1817Z" fill="#E6E6E6"/>
<path d="M211.764 24.9324C216.058 24.9324 219.538 21.1854 219.538 16.5632C219.538 11.941 216.058 8.19403 211.764 8.19403C207.471 8.19403 203.99 11.941 203.99 16.5632C203.99 21.1854 207.471 24.9324 211.764 24.9324Z" fill="#FFB7B7"/>
<path d="M218.994 91.6757C219.212 90.847 219.587 90.1402 220.032 89.636L221.651 81.6L225.181 82.5414L223.158 90.5917C223.291 91.2728 223.265 92.0859 223.046 92.9146C222.547 94.8077 221.235 96.0651 220.116 95.723C218.997 95.3808 218.494 93.5688 218.994 91.6757Z" fill="#FFB6B6"/>
<path d="M219.482 32.846C219.482 32.846 225.998 32.4887 226.473 37.1407C226.947 41.7927 228.465 68.2875 228.465 68.2875L224.947 86.1708L219.929 85.4202L222.146 62.6566L219.482 32.846Z" fill="#E6E6E6"/>
<path d="M219.668 9.45086C219.668 11.3417 218.694 13.7764 218.694 16.6355L215.738 15.8076C215.68 15.2533 215.38 13.5203 215.246 12.98C215.315 13.4887 215.461 15.1972 215.298 15.6813L213.848 15.2743C213.839 14.9832 213.816 14.692 213.783 14.4043C213.725 13.85 213.627 13.3028 213.493 12.7625C213.562 13.2712 213.506 13.7939 213.343 14.278C213.249 14.5446 213.125 14.7972 212.969 15.0288L205.812 13.0186C204.079 12.3164 203.814 14.7875 203.841 17.8914C203.841 17.8914 202.863 7.01622 210.293 6.38825L211.414 5.18146C218.163 5.59892 219.668 7.10393 219.668 9.45086Z" fill="#2F2E41"/>
<path d="M203.739 19.7461C204.005 22.6669 203.681 25.6055 203.294 28.514C203.17 29.4501 203.032 30.4082 202.569 31.2416C202.106 32.0749 201.244 32.7707 200.256 32.7923C201.809 33.2437 203.599 32.848 204.786 31.7912C205.991 30.7183 206.521 29.092 206.562 27.5186C206.602 25.9452 206.207 24.3947 205.814 22.8662L203.739 19.7461Z" fill="#2F2E41"/>
<path d="M217.929 8.49323C218.195 13.8184 217.87 19.1759 217.484 24.4787C217.36 26.1853 217.222 27.9322 216.758 29.4515C216.295 30.9708 215.433 32.2394 214.446 32.2788C215.998 33.1017 217.789 32.3804 218.976 30.4535C220.181 28.4974 220.711 25.5324 220.751 22.6638C220.792 19.7952 220.397 16.9684 220.004 14.1817L217.929 8.49323Z" fill="#2F2E41"/>
<path d="M52.6843 167.261L57.3618 167.26L59.587 147.837L52.6833 147.838L52.6843 167.261Z" fill="#A0616A"/>
<path d="M68.7102 167.147C68.8558 167.411 68.9326 168.263 68.9326 168.57C68.9326 169.514 68.2219 170.279 67.3451 170.279H52.8593C52.2612 170.279 51.7763 169.757 51.7763 169.113V168.464C51.7763 168.464 51.0597 166.513 52.535 164.108C52.535 164.108 54.3687 165.991 57.1087 163.041L57.9167 161.465L63.7654 166.07L67.0073 166.5C67.7165 166.594 68.3453 166.485 68.7102 167.147Z" fill="#2F2E41"/>
<path d="M38.3462 167.261L43.0237 167.26L45.2488 147.837L38.3452 147.838L38.3462 167.261Z" fill="#A0616A"/>
<path d="M54.372 167.147C54.5177 167.411 54.5945 168.263 54.5945 168.57C54.5945 169.514 53.8837 170.279 53.007 170.279H38.5212C37.9231 170.279 37.4382 169.757 37.4382 169.113V168.464C37.4382 168.464 36.7216 166.513 38.1969 164.108C38.1969 164.108 40.0306 165.991 42.7705 163.041L43.5785 161.465L49.4273 166.07L52.6691 166.5C53.3784 166.594 54.0072 166.485 54.372 167.147Z" fill="#2F2E41"/>
<path d="M39.1159 69.9871L36.1831 120.153L37.6495 158.86H46.7763L52.4764 93.1407L51.2101 158.86L59.6454 158.743L68.6067 83.1426C68.6067 83.1426 68.4438 75.2493 65.6739 71.2149C62.9041 67.1806 39.1159 69.9871 39.1159 69.9871Z" fill="black"/>
<path d="M73.0759 58.4467L65.7297 58.7582L66.5878 67.5919L80.9896 79.2836L82.9448 76.1263L72.6033 63.3064L73.0759 58.4467Z" fill="#A0616A"/>
<path d="M59.1567 25.9602L49.0549 24.9077L41.56 28.7667V60.6906L39.1767 66.0553C38.4092 67.7829 38.3285 69.7726 38.9531 71.5658L65.6741 71.215L65.0223 67.356L66.3258 59.989L67.3034 32.9764L59.1567 25.9602Z" fill="#E6E6E6"/>
<path d="M65.1851 32.801C65.1851 32.801 67.4662 30.3453 69.0955 36.6599C70.7248 42.9745 74.6352 65.4265 74.6352 65.4265L65.348 65.6019L62.9041 41.5713L65.1851 32.801Z" fill="#E6E6E6"/>
<path d="M39.1161 59.8135L38.1385 85.7226L34.554 86.1245L33.2505 60.5152L39.1161 59.8135Z" fill="#A0616A"/>
<path d="M45.3073 28.942C45.3073 28.942 39.4417 26.4863 37.8124 32.801C36.1831 39.1156 32.2727 61.5676 32.2727 61.5676L39.4417 62.1214L47.5884 37.7123L45.3073 28.942Z" fill="#E6E6E6"/>
<path d="M36.544 93.5214C38.031 93.467 39.1675 91.2372 39.0823 88.541C38.9972 85.8448 37.7227 83.7032 36.2357 83.7576C34.7487 83.812 33.6122 86.0418 33.6974 88.738C33.7825 91.4342 35.057 93.5758 36.544 93.5214Z" fill="#A0616A"/>
<path d="M87.9766 83.1533C88.977 81.9676 88.2841 79.536 86.4291 77.7222C84.5741 75.9085 82.2594 75.3994 81.259 76.5851C80.2587 77.7708 80.9515 80.2024 82.8066 82.0162C84.6616 83.8299 86.9763 84.339 87.9766 83.1533Z" fill="#A0616A"/>
<path d="M91.0509 65.3561C89.9454 62.2895 86.7401 60.7683 83.8916 61.9584C81.0701 63.1372 79.6586 66.5337 80.7063 69.5782L80.6236 69.6127L84.6268 80.7177L94.1188 76.7521C94.4327 76.6853 94.7455 76.5901 95.0541 76.4612C97.9026 75.2711 99.3156 71.8204 98.2101 68.7538C97.1047 65.6872 93.8994 64.166 91.0509 65.3561Z" fill="#E8384E"/>
<path d="M168.322 5.96381V43.1499C168.322 46.4385 165.837 49.1137 162.782 49.1137H128.24C125.185 49.1137 122.7 46.4385 122.7 43.1499V5.96381C122.7 2.67529 125.185 0 128.24 0H162.782C165.837 0 168.322 2.67529 168.322 5.96381ZM162.782 48.4121C165.481 48.4121 167.67 46.0562 167.67 43.1499V24.4022C167.67 11.3127 157.813 0.701625 145.655 0.701625C133.337 0.701625 123.352 11.4512 123.352 24.7115V43.1499C123.352 46.0562 125.541 48.4121 128.24 48.4121H162.782Z" fill="#A5A5A5"/>
<path d="M160.93 13.4094C157.915 12.8735 155.068 15.07 154.57 18.3155C154.077 21.5302 156.075 24.5666 159.042 25.1448L159.028 25.2389L169.945 27.1795L171.604 16.3648C171.71 16.04 171.793 15.7016 171.847 15.35C172.345 12.1046 170.304 9.03916 167.29 8.50328C164.275 7.96741 161.428 10.1639 160.93 13.4094Z" fill="#E63950"/>
<path d="M124.941 39.396C123.836 36.3294 120.63 34.8082 117.782 35.9983C114.96 37.1771 113.549 40.5736 114.596 43.618L114.514 43.6525L118.517 54.7576L128.009 50.7919C128.323 50.7252 128.636 50.6299 128.944 50.501C131.793 49.3109 133.206 45.8602 132.1 42.7936C130.995 39.7271 127.79 38.2059 124.941 39.396Z" fill="#22A8F9"/>
<path d="M210.995 79.1628C208.009 78.4659 205.064 80.507 204.417 83.7218C203.775 86.906 205.63 90.0458 208.567 90.7824L208.548 90.8756L219.362 93.3993L221.519 82.6869C221.64 82.3682 221.739 82.0347 221.809 81.6865C222.457 78.4718 220.561 75.3007 217.574 74.6039C214.588 73.907 211.643 75.948 210.995 79.1628Z" fill="#22A8F9"/>
<path d="M53.3264 25.6161C59.0296 25.6161 63.6529 21.4488 63.6529 16.3081C63.6529 11.1674 59.0296 7 53.3264 7C47.6233 7 43 11.1674 43 16.3081C43 21.4488 47.6233 25.6161 53.3264 25.6161Z" fill="#A0616A"/>
<path d="M50.0173 1.97972C48.2886 2.88815 47.0685 2.15693 45.8404 2.60336C43.4408 3.47561 39.2231 10.0175 39.4917 12.8233C39.8722 16.797 41.4803 17.013 41.3388 19.8503C41.1116 24.4064 40.7104 24.3743 41.6937 26.0001C42.7874 27.8083 49.3279 27.5422 50.6181 25.1813C50.8726 24.7155 48.2121 24.8145 45.4836 18.5043C44.1144 15.3379 45.174 12.5284 45.7202 11.3108C45.8481 11.0257 45.9697 8.976 46.2148 9.21198C48.3638 11.2811 49.6533 9.86268 50.9961 9.73919C53.752 9.48577 55.7531 11.5496 56.6094 10.8605C57.2466 10.3476 56.5025 8.9119 56.8065 8.81804C57.1305 8.71795 58.1406 10.2994 58.7805 11.9856C59.1932 13.073 59.3995 13.6167 59.3562 14.229C59.2224 16.1201 58.5102 21.4709 57.5093 23.0149C55.348 26.3491 57.8864 27.7175 59.5035 27.5225C60.8099 27.3649 66.5303 28.3426 66.8636 27.7805C67.1605 27.2798 66.6931 22.0131 66.181 17.1142C65.5654 11.226 62.5029 5.73302 57.5458 1.83456C57.2551 1.60595 57.0379 1.4485 56.921 1.38723C56.6441 1.2421 53.7878 -0.211065 51.6147 0.80293C50.8147 1.17622 50.9324 1.49888 50.0173 1.97972Z" fill="#2F2E41"/>
</svg>
