<svg width="41" height="14" viewBox="0 0 41 14" fill="none" xmlns="http://www.w3.org/2000/svg">
<path d="M9.05469 9.57812C9.20052 9.28646 9.35677 8.90625 9.52344 8.4375C9.6901 7.95833 9.77344 7.42188 9.77344 6.82812C9.77344 6.36979 9.70573 5.90625 9.57031 5.4375C9.44531 5.03125 9.29427 4.66667 9.11719 4.34375C8.95052 4.01042 8.76823 3.71875 8.57031 3.46875C8.3724 3.20833 8.16927 2.98438 7.96094 2.79688C7.76302 2.60938 7.57552 2.45312 7.39844 2.32812C7.01302 2.05729 6.65365 1.86979 6.32031 1.76562C5.9974 1.66146 5.72656 1.60938 5.50781 1.60938C5.20573 1.70312 4.95573 1.79688 4.75781 1.89062C4.5599 1.98438 4.45573 2.03125 4.44531 2.03125C4.38281 2.0625 4.3151 2.07812 4.24219 2.07812C4.10677 2.07812 4.0026 2.03125 3.92969 1.9375C3.5651 2.13542 3.21615 2.49479 2.88281 3.01562C2.54948 3.53646 2.27344 4.17188 2.05469 4.92188C1.90885 5.41146 1.79948 5.90104 1.72656 6.39062C1.65365 6.88021 1.61719 7.35938 1.61719 7.82812C1.61719 8.48438 1.6901 9.0625 1.83594 9.5625C1.9401 9.89583 2.07031 10.1875 2.22656 10.4375C2.38281 10.6875 2.55469 10.901 2.74219 11.0781C2.92969 11.2448 3.1224 11.3854 3.32031 11.5C3.52865 11.6042 3.72135 11.6875 3.89844 11.75C4.3776 11.9271 4.88802 12.0156 5.42969 12.0156C5.89844 12.0156 6.34635 11.9531 6.77344 11.8281C7.09635 11.7344 7.46615 11.5 7.88281 11.125C8.3099 10.75 8.70052 10.2344 9.05469 9.57812ZM7.89844 1.625C8.10677 1.77083 8.32552 1.95312 8.55469 2.17188C8.79427 2.39062 9.02865 2.64583 9.25781 2.9375C9.48698 3.22917 9.70052 3.5625 9.89844 3.9375C10.0964 4.30208 10.2682 4.71875 10.4141 5.1875C10.5703 5.71875 10.6484 6.26562 10.6484 6.82812C10.6484 7.35938 10.5755 7.89062 10.4297 8.42188C10.2943 8.95312 10.0911 9.47396 9.82031 9.98438C9.45573 10.651 9.02344 11.2292 8.52344 11.7188C8.02344 12.1979 7.52344 12.5104 7.02344 12.6562C6.5026 12.8125 5.97135 12.8906 5.42969 12.8906C4.80469 12.8906 4.19531 12.7865 3.60156 12.5781C3.3724 12.4948 3.13281 12.3854 2.88281 12.25C2.63281 12.1042 2.38802 11.9219 2.14844 11.7031C1.90885 11.4844 1.6849 11.224 1.47656 10.9219C1.27865 10.6094 1.11719 10.2396 0.992188 9.8125C0.825521 9.25 0.742188 8.58854 0.742188 7.82812C0.742188 7.32812 0.778646 6.8125 0.851562 6.28125C0.934896 5.73958 1.05469 5.20312 1.21094 4.67188C1.5026 3.67188 1.88281 2.85417 2.35156 2.21875C2.83073 1.58333 3.35156 1.17708 3.91406 1C4.07031 0.958333 4.23177 0.9375 4.39844 0.9375C4.45052 0.9375 4.5026 0.9375 4.55469 0.9375C4.60677 0.9375 4.65885 0.947917 4.71094 0.96875C4.84635 0.916667 5.02865 0.854167 5.25781 0.78125C5.36198 0.75 5.48698 0.734375 5.63281 0.734375C5.94531 0.734375 6.29948 0.8125 6.69531 0.96875C7.10156 1.125 7.5026 1.34375 7.89844 1.625ZM29.7422 1.54688C29.8047 1.83854 29.862 2.22917 29.9141 2.71875C29.9766 3.19792 30.0286 3.70312 30.0703 4.23438C30.112 4.75521 30.1432 5.26042 30.1641 5.75C30.1953 6.23958 30.2109 6.63542 30.2109 6.9375C30.2109 7 30.2214 7.1875 30.2422 7.5C30.263 7.80208 30.2734 8.15104 30.2734 8.54688C30.2734 8.93229 30.2578 9.32812 30.2266 9.73438C30.1953 10.1302 30.1328 10.4792 30.0391 10.7812C29.8724 11.3333 29.6328 11.7708 29.3203 12.0938C29.0078 12.4167 28.6589 12.6615 28.2734 12.8281C27.888 12.9948 27.4922 13.1042 27.0859 13.1562C26.6901 13.2083 26.3255 13.25 25.9922 13.2812C25.9401 13.2917 25.8932 13.2969 25.8516 13.2969C25.8203 13.2969 25.7786 13.2969 25.7266 13.2969C25.2578 13.2969 24.7422 13.1979 24.1797 13C23.6276 12.8021 23.1172 12.4792 22.6484 12.0312C22.2109 11.5938 21.9036 11.0885 21.7266 10.5156C21.5495 9.94271 21.4505 9.31771 21.4297 8.64062L21.3828 6.96875C21.3724 6.64583 21.3516 6.23958 21.3203 5.75C21.2995 5.25 21.2682 4.74479 21.2266 4.23438C21.1849 3.71354 21.138 3.21875 21.0859 2.75C21.0339 2.28125 20.9766 1.90625 20.9141 1.625C20.9141 1.39583 21.0599 1.25 21.3516 1.1875C21.4557 1.1875 21.5495 1.21875 21.6328 1.28125C21.7161 1.34375 21.7682 1.43229 21.7891 1.54688C21.8516 1.84896 21.9089 2.24479 21.9609 2.73438C22.013 3.21354 22.0599 3.71875 22.1016 4.25C22.1432 4.77083 22.1745 5.27604 22.1953 5.76562C22.2266 6.25521 22.2474 6.65104 22.2578 6.95312L22.3047 8.67188V8.95312C22.3047 9.95312 22.6276 10.7708 23.2734 11.4062C23.4609 11.5833 23.6589 11.7344 23.8672 11.8594C24.0755 11.9844 24.2891 12.0885 24.5078 12.1719C24.7266 12.2552 24.9401 12.3177 25.1484 12.3594C25.3568 12.401 25.5495 12.4219 25.7266 12.4219H25.9141C26.3099 12.3906 26.6797 12.349 27.0234 12.2969C27.3776 12.2344 27.6953 12.1354 27.9766 12C28.2578 11.8646 28.5026 11.6823 28.7109 11.4531C28.9193 11.224 29.0807 10.9167 29.1953 10.5312C29.2786 10.2708 29.3307 9.96354 29.3516 9.60938C29.3828 9.24479 29.3984 8.88542 29.3984 8.53125C29.3984 8.11458 29.388 7.75521 29.3672 7.45312C29.3464 7.14062 29.3359 6.97396 29.3359 6.95312C29.3255 6.64062 29.3047 6.23958 29.2734 5.75C29.2422 5.26042 29.2057 4.76042 29.1641 4.25C29.1328 3.72917 29.0911 3.23438 29.0391 2.76562C28.987 2.28646 28.9297 1.90625 28.8672 1.625C28.8672 1.39583 29.013 1.25 29.3047 1.1875C29.4089 1.1875 29.5026 1.21875 29.5859 1.28125C29.6693 1.34375 29.7214 1.43229 29.7422 1.54688Z" fill="#D4374A"/>
<path d="M19.3359 4.78125C19.3359 4.60417 19.2995 4.40104 19.2266 4.17188C19.1641 3.93229 19.0599 3.69792 18.9141 3.46875C18.7682 3.23958 18.5859 3.03125 18.3672 2.84375C18.1484 2.65625 17.8932 2.52083 17.6016 2.4375C17.0391 2.29167 16.5547 2.1875 16.1484 2.125C15.7422 2.0625 15.3724 2.03125 15.0391 2.03125C14.6745 2.03125 14.3359 2.0625 14.0234 2.125C13.7214 2.1875 13.388 2.26042 13.0234 2.34375C13.0651 2.69792 13.1016 3.08854 13.1328 3.51562C13.1745 3.93229 13.2057 4.34375 13.2266 4.75C13.2578 5.15625 13.2786 5.54167 13.2891 5.90625C13.3099 6.27083 13.3203 6.56771 13.3203 6.79688C13.3203 6.84896 13.3203 6.91146 13.3203 6.98438C13.3203 7.05729 13.3255 7.13542 13.3359 7.21875C13.4818 7.21875 13.6224 7.21875 13.7578 7.21875C13.9036 7.21875 14.0495 7.22396 14.1953 7.23438C14.4245 7.24479 14.6484 7.25 14.8672 7.25C15.0964 7.25 15.3255 7.25 15.5547 7.25C15.9714 7.25 16.362 7.23958 16.7266 7.21875C17.1016 7.19792 17.4245 7.15104 17.6953 7.07812C18.0495 6.97396 18.3307 6.85417 18.5391 6.71875C18.7474 6.57292 18.9036 6.41667 19.0078 6.25C19.112 6.08333 19.1797 5.90104 19.2109 5.70312C19.2526 5.50521 19.2839 5.30208 19.3047 5.09375L19.3203 4.90625L19.3359 4.78125ZM17.8203 1.59375C18.2057 1.69792 18.5495 1.86979 18.8516 2.10938C19.1536 2.34896 19.4036 2.61979 19.6016 2.92188C19.7995 3.22396 19.9505 3.54167 20.0547 3.875C20.1589 4.19792 20.2109 4.5 20.2109 4.78125C20.2109 4.82292 20.2057 4.85938 20.1953 4.89062C20.1953 4.92188 20.1953 4.95833 20.1953 5L20.1797 5.1875C20.1589 5.40625 20.1224 5.64583 20.0703 5.90625C20.0182 6.15625 19.9193 6.40625 19.7734 6.65625C19.6276 6.90625 19.4089 7.14583 19.1172 7.375C18.8255 7.59375 18.4297 7.77083 17.9297 7.90625C17.6172 8 17.2578 8.0625 16.8516 8.09375C16.4557 8.11458 16.0286 8.125 15.5703 8.125C15.3411 8.125 15.112 8.125 14.8828 8.125C14.6536 8.125 14.4193 8.11979 14.1797 8.10938C14.0443 8.09896 13.9089 8.09375 13.7734 8.09375C13.6484 8.09375 13.5182 8.09375 13.3828 8.09375C13.4141 8.55208 13.4557 9.04688 13.5078 9.57812C13.5599 10.099 13.6068 10.5885 13.6484 11.0469C13.7005 11.5052 13.7422 11.8906 13.7734 12.2031C13.8151 12.5156 13.8359 12.6823 13.8359 12.7031C13.8359 12.8177 13.7943 12.9167 13.7109 13C13.638 13.0833 13.5339 13.1302 13.3984 13.1406C13.2839 13.1406 13.1849 13.1042 13.1016 13.0312C13.0182 12.9583 12.9714 12.8646 12.9609 12.75C12.9505 12.7188 12.9297 12.5781 12.8984 12.3281C12.8776 12.0781 12.8464 11.7708 12.8047 11.4062C12.7734 11.0312 12.737 10.6198 12.6953 10.1719C12.6536 9.72396 12.612 9.28646 12.5703 8.85938C12.5391 8.42188 12.5078 8.02083 12.4766 7.65625C12.4557 7.29167 12.4453 7.00521 12.4453 6.79688C12.4453 6.53646 12.4349 6.21875 12.4141 5.84375C12.4036 5.46875 12.3828 5.07292 12.3516 4.65625C12.3203 4.23958 12.2839 3.82812 12.2422 3.42188C12.2109 3.00521 12.1745 2.63021 12.1328 2.29688C12.112 2.27604 12.0964 2.25 12.0859 2.21875C12.0755 2.17708 12.0599 2.11458 12.0391 2.03125C12.0391 1.98958 12.0495 1.9375 12.0703 1.875C12.0599 1.82292 12.0495 1.76562 12.0391 1.70312C12.0391 1.64062 12.0286 1.56771 12.0078 1.48438C12.0078 1.38021 12.0443 1.28646 12.1172 1.20312C12.1901 1.11979 12.2995 1.06771 12.4453 1.04688C12.5495 1.04688 12.6432 1.08333 12.7266 1.15625C12.8099 1.22917 12.862 1.33854 12.8828 1.48438C13.2578 1.39062 13.612 1.3125 13.9453 1.25C14.2786 1.1875 14.638 1.15625 15.0234 1.15625C15.388 1.15625 15.7891 1.19271 16.2266 1.26562C16.6745 1.32812 17.2057 1.4375 17.8203 1.59375ZM36.9922 5.23438C37.4922 5.36979 37.9401 5.59375 38.3359 5.90625C38.7318 6.20833 39.0651 6.55729 39.3359 6.95312C39.6068 7.33854 39.8151 7.74479 39.9609 8.17188C40.1068 8.58854 40.1797 8.97917 40.1797 9.34375L40.1641 9.57812C40.1536 9.85938 40.1328 10.1615 40.1016 10.4844C40.0703 10.7969 39.9766 11.1094 39.8203 11.4219C39.6641 11.724 39.4141 12.0104 39.0703 12.2812C38.737 12.5417 38.2682 12.7552 37.6641 12.9219C37.362 13.0156 37.0859 13.0781 36.8359 13.1094C36.5964 13.151 36.362 13.1719 36.1328 13.1719C35.7995 13.1719 35.4661 13.1354 35.1328 13.0625C34.8099 12.9896 34.4141 12.8906 33.9453 12.7656C33.5182 12.6615 33.1536 12.4948 32.8516 12.2656C32.5495 12.026 32.2995 11.7917 32.1016 11.5625C31.9036 11.3229 31.7578 11.1146 31.6641 10.9375C31.5703 10.75 31.5182 10.6458 31.5078 10.625C31.4766 10.5833 31.4609 10.526 31.4609 10.4531C31.4609 10.276 31.5495 10.1406 31.7266 10.0469C31.8099 10.026 31.8672 10.0156 31.8984 10.0156C31.9818 10.0156 32.0599 10.0417 32.1328 10.0938C32.2161 10.1354 32.2734 10.1979 32.3047 10.2812L32.4141 10.4844C32.487 10.6302 32.6016 10.7969 32.7578 10.9844C32.9141 11.1615 33.112 11.3438 33.3516 11.5312C33.5911 11.7083 33.8776 11.8438 34.2109 11.9375C34.6484 12.0521 35.0078 12.1406 35.2891 12.2031C35.5807 12.2656 35.862 12.2969 36.1328 12.2969C36.487 12.2969 36.9193 12.2292 37.4297 12.0938C37.8776 11.9583 38.2266 11.8021 38.4766 11.625C38.7266 11.4479 38.9089 11.25 39.0234 11.0312C39.138 10.8125 39.2057 10.5781 39.2266 10.3281C39.2578 10.0781 39.2786 9.81771 39.2891 9.54688L39.3047 9.26562C39.3047 9.04688 39.2474 8.77604 39.1328 8.45312C39.0286 8.13021 38.8724 7.8125 38.6641 7.5C38.4557 7.1875 38.1901 6.90104 37.8672 6.64062C37.5547 6.38021 37.1901 6.19792 36.7734 6.09375C36.4922 6.01042 36.1901 5.95312 35.8672 5.92188C35.5547 5.89062 35.2422 5.85938 34.9297 5.82812C34.5651 5.79688 34.2057 5.76042 33.8516 5.71875C33.5078 5.67708 33.1953 5.60417 32.9141 5.5C32.6328 5.38542 32.3984 5.23438 32.2109 5.04688C32.0339 4.84896 31.9297 4.58333 31.8984 4.25C31.8984 4.20833 31.8932 4.17188 31.8828 4.14062C31.8828 4.10938 31.8828 4.07812 31.8828 4.04688C31.8828 3.64062 31.9609 3.29688 32.1172 3.01562C32.2839 2.72396 32.4818 2.47917 32.7109 2.28125C32.9505 2.08333 33.1953 1.92188 33.4453 1.79688C33.7057 1.67188 33.9297 1.56771 34.1172 1.48438C34.3568 1.36979 34.6432 1.29167 34.9766 1.25C35.3203 1.19792 35.6901 1.17188 36.0859 1.17188C36.4401 1.17188 36.7943 1.19271 37.1484 1.23438C37.513 1.27604 37.8672 1.33854 38.2109 1.42188C38.4401 1.47396 38.5495 1.64583 38.5391 1.9375C38.5182 2.04167 38.4609 2.125 38.3672 2.1875C38.2734 2.25 38.1536 2.27604 38.0078 2.26562C37.7057 2.18229 37.3828 2.125 37.0391 2.09375C36.7057 2.0625 36.3828 2.04688 36.0703 2.04688C35.737 2.04688 35.4297 2.06771 35.1484 2.10938C34.8776 2.14062 34.6484 2.19792 34.4609 2.28125C34.2422 2.375 34.0286 2.47917 33.8203 2.59375C33.612 2.69792 33.4297 2.82292 33.2734 2.96875C33.1172 3.11458 32.9922 3.28646 32.8984 3.48438C32.8151 3.68229 32.7734 3.91667 32.7734 4.1875C32.7943 4.45833 32.9974 4.64062 33.3828 4.73438C33.7786 4.82812 34.3151 4.90104 34.9922 4.95312C35.3255 4.98438 35.6589 5.02083 35.9922 5.0625C36.3359 5.09375 36.6693 5.15104 36.9922 5.23438Z" fill="#22A8F9"/>
</svg>
